<svg width="18" height="19" viewBox="0 0 18 19" fill="none" xmlns="http://www.w3.org/2000/svg">
<path d="M13.485 8.28245V11.2824C13.485 11.4774 13.4775 11.6649 13.455 11.8449C13.2825 13.8699 12.09 14.8749 9.8925 14.8749H9.59251C9.40501 14.8749 9.225 14.9649 9.1125 15.1149L8.21251 16.3149C7.81501 16.8474 7.17 16.8474 6.7725 16.3149L5.87249 15.1149C5.77499 14.9874 5.5575 14.8749 5.3925 14.8749H5.09251C2.70001 14.8749 1.5 14.2824 1.5 11.2824V8.28245C1.5 6.08495 2.51251 4.89245 4.53001 4.71995C4.71001 4.69745 4.89751 4.68994 5.09251 4.68994H9.8925C12.285 4.68994 13.485 5.88995 13.485 8.28245Z" stroke="#1B1B1B" stroke-width="1.125" stroke-miterlimit="10" stroke-linecap="round" stroke-linejoin="round"/>
<path d="M16.485 5.28245V8.28245C16.485 10.4874 15.4725 11.6724 13.455 11.8449C13.4775 11.6649 13.485 11.4774 13.485 11.2824V8.28245C13.485 5.88995 12.285 4.68994 9.89252 4.68994H5.09253C4.89753 4.68994 4.71003 4.69745 4.53003 4.71995C4.70253 2.70245 5.89503 1.68994 8.09253 1.68994H12.8925C15.285 1.68994 16.485 2.88995 16.485 5.28245Z" stroke="#1B1B1B" stroke-width="1.125" stroke-miterlimit="10" stroke-linecap="round" stroke-linejoin="round"/>
<path d="M10.1216 10.1274H10.1284" stroke="#1B1B1B" stroke-width="1.5" stroke-linecap="round" stroke-linejoin="round"/>
<path d="M7.49662 10.1274H7.50337" stroke="#1B1B1B" stroke-width="1.5" stroke-linecap="round" stroke-linejoin="round"/>
<path d="M4.87162 10.1274H4.87837" stroke="#1B1B1B" stroke-width="1.5" stroke-linecap="round" stroke-linejoin="round"/>
</svg>
