<?xml version="1.0" encoding="UTF-8"?>
<!DOCTYPE svg PUBLIC "-//W3C//DTD SVG 1.1//EN" "http://www.w3.org/Graphics/SVG/1.1/DTD/svg11.dtd">
<!-- Creator: CorelDRAW -->
<svg xmlns="http://www.w3.org/2000/svg" xml:space="preserve" width="0.280063in" height="0.278756in" version="1.1" style="shape-rendering:geometricPrecision; text-rendering:geometricPrecision; image-rendering:optimizeQuality; fill-rule:evenodd; clip-rule:evenodd"
viewBox="0 0 3.77 3.75"
 xmlns:xlink="http://www.w3.org/1999/xlink"
 xmlns:xodm="http://www.corel.com/coreldraw/odm/2003">
 <defs>
  <style type="text/css">
   <![CDATA[
    .fil0 {fill:white}
   ]]>
  </style>
 </defs>
 <g id="Layer_x0020_1">
  <metadata id="CorelCorpID_0Corel-Layer"/>
  <path class="fil0" d="M1.88 0c1.04,0 1.88,0.84 1.88,1.88 0,0.95 -0.71,1.74 -1.62,1.87l0 -1.39 0.46 0c0.03,0 0.02,-0.03 0.03,-0.06l0.03 -0.23c0.01,-0.05 0.01,-0.1 0.02,-0.15 0.01,-0.07 0.03,-0.14 -0,-0.14l-0.53 0 0 -0.4c0,-0.19 0.15,-0.22 0.32,-0.22l0.24 0 0 -0.49c0,-0.03 -0.04,-0.02 -0.1,-0.03 -0.13,-0.01 -0.36,-0.02 -0.48,-0 -0.03,0 -0.07,0.01 -0.1,0.02 -0.38,0.12 -0.48,0.41 -0.48,0.8l0 0.31 -0.47 0 0 0.55c0,0.02 0,0.02 0.02,0.02l0.45 0 0 1.38c-0.88,-0.16 -1.55,-0.93 -1.55,-1.85 0,-1.04 0.84,-1.88 1.88,-1.88z"/>
 </g>
</svg>
