<svg width="111" height="32" viewBox="0 0 111 32" fill="none" xmlns="http://www.w3.org/2000/svg">
<g id="6515a6d5f30daec433d0ac3f_logo-box-greenhouse.svg">
<path id="Vector" d="M9.50156 12.5996C9.50156 13.6996 9.00156 14.5996 8.30156 15.3996C7.50156 16.1996 6.30156 16.3996 6.30156 17.0996C6.30156 18.0996 7.80156 17.7996 9.30156 19.1996C10.3016 20.1996 10.9016 21.4996 10.9016 22.9996C10.9016 25.8996 8.50156 28.2996 5.50156 28.2996C2.50156 28.2996 0.101562 25.9996 0.101562 22.9996C0.101562 21.4996 0.701563 20.1996 1.70156 19.1996C3.20156 17.6996 4.70156 17.9996 4.70156 17.0996C4.70156 16.3996 3.50156 16.1996 2.70156 15.3996C1.90156 14.6996 1.50156 13.6996 1.50156 12.5996C1.50156 10.3996 3.30156 8.69961 5.40156 8.69961C5.80156 8.69961 6.20156 8.79961 6.50156 8.79961C7.10156 8.79961 7.40156 8.59961 7.40156 8.19961C7.40156 7.99961 7.30156 7.69961 7.30156 7.39961C7.30156 6.59961 7.90156 5.99961 8.60156 5.99961C9.30156 5.99961 9.90156 6.59961 9.90156 7.29961C9.90156 8.09961 9.30156 8.39961 8.80156 8.59961C8.50156 8.69961 8.20156 8.89961 8.20156 9.29961C8.20156 9.99961 9.50156 10.6996 9.50156 12.5996ZM9.10156 23.0996C9.10156 20.9996 7.60156 19.3996 5.50156 19.3996C3.40156 19.3996 1.90156 21.0996 1.90156 23.0996C1.90156 25.0996 3.40156 26.7996 5.50156 26.7996C7.60156 26.7996 9.10156 25.0996 9.10156 23.0996ZM7.90156 12.5996C7.90156 11.2996 6.80156 10.1996 5.50156 10.1996C4.20156 10.1996 3.10156 11.2996 3.10156 12.5996C3.10156 13.8996 4.20156 14.9996 5.50156 14.9996C6.80156 14.9996 7.90156 13.8996 7.90156 12.5996ZM17.0016 8.89961C17.7016 8.89961 18.2016 9.39961 18.2016 9.99961C18.2016 10.5996 17.7016 11.0996 17.1016 11.0996C16.4016 11.0996 16.0016 10.6996 15.3016 10.6996C14.6016 10.6996 14.1016 11.1996 14.1016 11.9996V18.4996C14.1016 18.9996 13.7016 19.3996 13.2016 19.3996C12.7016 19.3996 12.3016 18.9996 12.3016 18.4996V9.69961C12.3016 9.19961 12.7016 8.79961 13.2016 8.79961C14.1016 8.79961 13.9016 9.69961 14.8016 9.69961C15.7016 9.69961 16.0016 8.89961 17.0016 8.89961ZM18.9016 14.0996C18.9016 10.9996 21.1016 8.69961 24.0016 8.69961C26.7016 8.69961 28.9016 10.6996 28.9016 13.3996C28.9016 13.9996 28.5016 14.4996 27.9016 14.4996H21.1016C20.8016 14.4996 20.7016 14.5996 20.7016 14.7996C20.7016 15.2996 21.1016 16.2996 21.7016 16.8996C22.3016 17.4996 23.2016 17.8996 24.4016 17.8996C25.3016 17.8996 26.1016 17.5996 26.7016 17.0996C27.0016 16.9996 27.2016 16.9996 27.4016 16.9996C27.8016 16.9996 28.2016 17.3996 28.2016 17.7996C28.2016 17.9996 28.1016 18.2996 27.9016 18.3996C27.0016 19.0996 25.8016 19.4996 24.5016 19.4996C21.3016 19.4996 18.9016 17.1996 18.9016 14.0996ZM26.3016 11.0996C25.7016 10.4996 25.0016 10.1996 24.1016 10.1996C23.2016 10.1996 22.4016 10.5996 21.8016 11.1996C21.3016 11.6996 21.0016 12.2996 21.0016 12.6996C21.0016 12.8996 21.1016 12.9996 21.4016 12.9996H26.8016C27.1016 12.9996 27.2016 12.8996 27.2016 12.6996C27.1016 12.1996 26.7016 11.5996 26.3016 11.0996ZM30.8016 14.0996C30.8016 10.9996 33.0016 8.69961 35.9016 8.69961C38.6016 8.69961 40.8016 10.6996 40.8016 13.3996C40.8016 13.9996 40.4016 14.4996 39.8016 14.4996H33.0016C32.7016 14.4996 32.6016 14.5996 32.6016 14.7996C32.6016 15.2996 33.0016 16.2996 33.6016 16.8996C34.2016 17.4996 35.1016 17.8996 36.3016 17.8996C37.2016 17.8996 38.0016 17.5996 38.6016 17.0996C38.8016 16.9996 39.0016 16.8996 39.2016 16.8996C39.6016 16.8996 40.0016 17.2996 40.0016 17.6996C40.0016 17.8996 39.9016 18.1996 39.7016 18.2996C38.8016 18.9996 37.6016 19.3996 36.3016 19.3996C33.1016 19.4996 30.8016 17.1996 30.8016 14.0996ZM38.2016 11.0996C37.6016 10.4996 36.9016 10.1996 36.0016 10.1996C35.1016 10.1996 34.3016 10.5996 33.7016 11.1996C33.2016 11.6996 32.9016 12.2996 32.9016 12.6996C32.9016 12.8996 33.0016 12.9996 33.3016 12.9996H38.7016C39.0016 12.9996 39.1016 12.8996 39.1016 12.6996C39.0016 12.1996 38.6016 11.5996 38.2016 11.0996ZM51.3016 19.3996C50.8016 19.3996 50.4016 18.9996 50.4016 18.4996V12.8996C50.4016 11.3996 49.2016 10.2996 47.7016 10.2996C46.2016 10.2996 45.0016 11.3996 45.0016 12.8996V18.4996C45.0016 18.9996 44.6016 19.3996 44.1016 19.3996C43.6016 19.3996 43.2016 18.9996 43.2016 18.4996V9.69961C43.2016 9.19961 43.6016 8.79961 44.1016 8.79961C45.0016 8.79961 44.9016 9.59961 45.4016 9.59961C45.9016 9.59961 46.5016 8.69961 48.1016 8.69961C50.4016 8.69961 52.1016 10.5996 52.1016 12.8996V18.4996C52.1016 18.9996 51.7016 19.3996 51.3016 19.3996ZM63.2016 19.3996C62.7016 19.3996 62.3016 18.9996 62.3016 18.4996V12.8996C62.3016 11.3996 61.1016 10.2996 59.6016 10.2996C58.1016 10.2996 56.9016 11.3996 56.9016 12.8996V18.4996C56.9016 18.9996 56.5016 19.3996 56.0016 19.3996C55.5016 19.3996 55.1016 18.9996 55.1016 18.4996V4.49961C55.1016 3.99961 55.5016 3.59961 56.0016 3.59961C56.6016 3.59961 57.0016 3.99961 57.0016 4.49961V9.09961C57.0016 9.29961 57.1016 9.49961 57.4016 9.49961C57.9016 9.49961 58.5016 8.69961 60.1016 8.69961C62.4016 8.69961 64.1016 10.5996 64.1016 12.8996V18.4996C64.1016 18.9996 63.7016 19.3996 63.2016 19.3996ZM66.5016 14.0996C66.5016 11.0996 68.9016 8.69961 72.0016 8.69961C75.0016 8.69961 77.5016 11.0996 77.5016 14.0996C77.5016 17.0996 75.1016 19.4996 72.0016 19.4996C69.0016 19.4996 66.5016 17.0996 66.5016 14.0996ZM75.7016 14.0996C75.7016 11.9996 74.1016 10.2996 72.0016 10.2996C69.9016 10.2996 68.3016 11.9996 68.3016 14.0996C68.3016 16.1996 69.9016 17.8996 72.0016 17.8996C74.1016 17.9996 75.7016 16.1996 75.7016 14.0996ZM80.8016 8.79961C81.3016 8.79961 81.7016 9.19961 81.7016 9.69961V15.2996C81.7016 16.7996 82.9016 17.8996 84.4016 17.8996C85.9016 17.8996 87.1016 16.7996 87.1016 15.2996V9.69961C87.1016 9.19961 87.5016 8.79961 88.0016 8.79961C88.5016 8.79961 88.9016 9.19961 88.9016 9.69961V18.4996C88.9016 18.9996 88.5016 19.3996 88.0016 19.3996C87.1016 19.3996 87.2016 18.5996 86.7016 18.5996C86.2016 18.5996 85.6016 19.4996 84.0016 19.4996C81.7016 19.4996 80.0016 17.5996 80.0016 15.2996V9.69961C79.9016 9.19961 80.3016 8.79961 80.8016 8.79961ZM92.0016 18.7996C91.6016 18.5996 91.3016 18.2996 91.3016 17.7996C91.3016 17.2996 91.7016 16.9996 92.1016 16.9996C92.6016 16.9996 92.9016 17.2996 93.3016 17.4996C93.8016 17.7996 94.5016 17.9996 95.2016 17.9996C96.6016 17.9996 97.3016 17.3996 97.3016 16.5996C97.3016 15.4996 96.3016 15.2996 94.8016 14.8996C93.0016 14.3996 91.4016 13.8996 91.4016 11.8996C91.4016 10.0996 92.8016 8.79961 95.2016 8.79961C96.2016 8.79961 97.1016 8.99961 97.8016 9.49961C98.1016 9.59961 98.3016 9.99961 98.3016 10.2996C98.3016 10.7996 97.9016 11.1996 97.4016 11.1996C97.1016 11.1996 96.8016 10.9996 96.5016 10.7996C96.2016 10.5996 95.7016 10.3996 95.1016 10.3996C93.7016 10.3996 93.1016 10.9996 93.1016 11.7996C93.1016 12.8996 94.1016 13.0996 95.6016 13.4996C97.3016 13.8996 99.0016 14.4996 99.0016 16.4996C99.0016 18.2996 97.7016 19.6996 95.1016 19.6996C93.9016 19.4996 92.8016 19.2996 92.0016 18.7996ZM100.702 14.0996C100.702 10.9996 102.902 8.69961 105.802 8.69961C108.502 8.69961 110.702 10.6996 110.702 13.3996C110.702 13.9996 110.302 14.4996 109.702 14.4996H103.002C102.702 14.4996 102.602 14.5996 102.602 14.7996C102.602 15.2996 103.002 16.2996 103.602 16.8996C104.202 17.4996 105.102 17.8996 106.302 17.8996C107.202 17.8996 108.002 17.5996 108.602 17.0996C108.802 16.9996 109.002 16.8996 109.202 16.8996C109.602 16.8996 110.002 17.2996 110.002 17.6996C110.002 17.8996 109.902 18.1996 109.702 18.2996C108.802 18.9996 107.602 19.3996 106.302 19.3996C103.002 19.4996 100.702 17.1996 100.702 14.0996ZM108.102 11.0996C107.502 10.4996 106.802 10.1996 105.902 10.1996C105.002 10.1996 104.202 10.5996 103.602 11.1996C103.102 11.6996 102.802 12.2996 102.802 12.6996C102.802 12.8996 102.902 12.9996 103.202 12.9996H108.602C108.902 12.9996 109.002 12.8996 109.002 12.6996C108.902 12.1996 108.502 11.5996 108.102 11.0996Z" fill="#71717A"/>
</g>
</svg>
