<svg width="89" height="26" viewBox="0 0 89 26" fill="none" xmlns="http://www.w3.org/2000/svg">
<g id="6515a6d5f30daec433d0acbe_wf-marquee-ideo.svg" clip-path="url(#clip0_256_7634)">
<path id="Vector" d="M78.7609 2.84369C73.0831 2.84369 68.4449 7.40191 68.4449 12.9997C68.4449 18.5975 73.0031 23.1558 78.6809 23.1558C84.3587 23.1558 88.9169 18.5975 88.9169 12.9997C88.9969 7.40191 84.4386 2.84369 78.7609 2.84369ZM0.311523 3.64338V6.92209H7.98852V18.9974H0.311523V22.2761H18.9442V18.9974H11.3472V7.00206H18.9442V3.64338H0.311523ZM23.9023 3.64338V22.2761H32.8588C38.6166 22.2761 42.615 18.1977 42.615 12.9997C42.615 7.80175 38.6965 3.88328 33.0187 3.72335H23.9023V3.64338ZM46.6934 3.64338V22.2761H65.4861V18.9974H50.0521V14.5991H62.1274V11.4003H50.0521V7.00206H65.4861V3.64338H46.6934ZM78.7609 6.36231C82.4394 6.36231 85.4782 9.32116 85.4782 12.9997C85.4782 16.6783 82.4394 19.6371 78.7609 19.6371C75.0823 19.6371 72.0435 16.6783 72.0435 12.9997C72.0435 9.40113 75.0023 6.36231 78.7609 6.36231ZM27.261 6.92209H32.9388C36.6173 7.00206 39.0164 9.56106 39.0164 13.0797C39.0164 16.5983 36.6173 19.0773 32.8588 19.1573H27.261V6.92209Z" fill="#71717A"/>
</g>
<defs>
<clipPath id="clip0_256_7634">
<rect width="88.7653" height="25.59" fill="white" transform="translate(0.233398 0.205017)"/>
</clipPath>
</defs>
</svg>
