<svg width="135" height="32" viewBox="0 0 135 32" fill="none" xmlns="http://www.w3.org/2000/svg">
<g id="6515a6d5f30daec433d0ac3e_logo-box-monday.svg" clip-path="url(#clip0_256_7622)">
<path id="Vector" d="M4.11625 23.0004C3.61625 23.0004 3.11625 22.9004 2.71625 22.6004C2.31625 22.4004 1.91625 22.0004 1.71625 21.6004C1.51625 21.2004 1.31625 20.7004 1.41625 20.2004C1.41625 19.7004 1.61625 19.2004 1.81625 18.8004L6.81625 11.0004C7.11625 10.6004 7.41625 10.2004 7.81625 10.0004C8.21625 9.80039 8.71625 9.70039 9.21625 9.70039C9.71625 9.70039 10.2162 9.90039 10.6162 10.1004C11.0162 10.4004 11.4162 10.7004 11.6162 11.2004C12.1162 12.1004 12.0162 13.1004 11.5162 13.9004L6.51625 21.7004C6.21625 22.1004 5.91625 22.4004 5.51625 22.6004C5.01625 22.9004 4.51625 23.0004 4.11625 23.0004ZM12.6162 23.0004C11.6162 23.0004 10.7162 22.5004 10.2162 21.6004C10.0162 21.2004 9.81625 20.7004 9.91625 20.2004C9.91625 19.7004 10.1162 19.2004 10.3162 18.8004L15.3162 11.0004C15.6162 10.6004 15.9162 10.2004 16.3162 10.0004C16.7162 9.80039 17.2162 9.60039 17.7162 9.70039C18.7162 9.70039 19.6162 10.3004 20.1162 11.2004C20.6162 12.1004 20.5162 13.1004 19.9162 14.0004L14.9162 21.8004C14.6162 22.2004 14.3162 22.5004 13.9162 22.7004C13.5162 22.9004 13.0162 23.0004 12.6162 23.0004ZM20.9162 23.1004C22.3162 23.1004 23.5162 22.0004 23.5162 20.6004C23.5162 19.2004 22.4162 18.1004 20.9162 18.1004C19.5162 18.1004 18.3162 19.2004 18.3162 20.6004C18.3162 22.0004 19.5162 23.1004 20.9162 23.1004ZM131.916 18.2004C132.716 18.2004 133.116 18.7004 133.116 19.6004V22.7004H134.116V19.5004C134.116 18.0004 133.416 17.1004 132.016 17.1004C131.516 17.1004 130.616 17.2004 130.116 18.2004C130.016 17.9004 129.816 17.7004 129.516 17.5004C129.316 17.3004 129.016 17.2004 128.716 17.2004H128.116C127.716 17.2004 126.916 17.5004 126.616 18.1004V17.3004H125.616V22.8004H126.616V19.9004C126.616 18.8004 127.316 18.3004 128.116 18.3004C128.816 18.3004 129.316 18.8004 129.316 19.7004V22.8004H130.316V19.9004C130.516 18.9004 131.016 18.2004 131.916 18.2004ZM121.816 21.8004C122.316 21.8004 122.716 21.6004 123.116 21.3004C123.416 21.0004 123.616 20.5004 123.616 20.0004C123.616 18.9004 122.816 18.2004 121.816 18.2004C120.816 18.2004 120.016 18.9004 120.016 20.0004C120.016 20.5004 120.216 21.0004 120.516 21.3004C120.916 21.7004 121.416 21.9004 121.816 21.8004ZM121.816 22.9004C120.316 22.9004 119.016 21.8004 119.016 20.0004C119.016 18.3004 120.316 17.2004 121.816 17.2004C123.316 17.2004 124.616 18.3004 124.616 20.0004C124.716 21.7004 123.416 22.9004 121.816 22.9004ZM113.616 20.0004C113.616 18.3004 114.916 17.2004 116.416 17.2004C116.816 17.2004 117.216 17.3004 117.516 17.4004C117.916 17.6004 118.216 17.8004 118.416 18.1004L117.616 18.8004C117.416 18.6004 117.216 18.5004 117.016 18.4004C116.816 18.3004 116.516 18.3004 116.316 18.3004C115.316 18.3004 114.516 19.0004 114.516 20.1004C114.516 20.8004 114.916 21.5004 115.616 21.8004C116.316 22.1004 117.116 21.9004 117.616 21.4004L118.416 22.1004C118.116 22.4004 117.816 22.6004 117.516 22.8004C117.116 23.0004 116.816 23.0004 116.416 23.0004C115.016 22.9004 113.616 21.7004 113.616 20.0004ZM110.316 21.7004C110.316 21.6004 110.316 21.5004 110.416 21.4004C110.416 21.3004 110.516 21.2004 110.616 21.2004L110.816 21.0004C110.916 21.0004 111.016 20.9004 111.116 20.9004C111.216 20.9004 111.316 20.9004 111.416 21.0004C111.516 21.0004 111.616 21.1004 111.616 21.2004L111.816 21.4004C111.816 21.5004 111.916 21.6004 111.916 21.7004C111.916 21.9004 111.816 22.1004 111.716 22.2004C111.616 22.3004 111.416 22.4004 111.216 22.4004C111.016 22.4004 110.816 22.3004 110.716 22.2004C110.416 22.1004 110.316 21.9004 110.316 21.7004ZM113.116 10.4004H109.416L106.816 17.1004L104.216 10.4004H100.516L105.016 21.1004L102.216 28.1004H105.916L113.116 10.4004ZM90.4162 16.3004C90.4162 18.0004 91.9162 19.1004 93.4162 19.1004C94.8162 19.1004 96.2162 18.1004 96.2162 16.3004C96.2162 14.5004 94.8162 13.5004 93.4162 13.5004C91.9162 13.5004 90.4162 14.6004 90.4162 16.3004ZM96.2162 22.3004V21.0004C95.4162 22.1004 93.7162 22.6004 92.8162 22.6004C89.8162 22.6004 86.8162 20.2004 86.8162 16.4004C86.8162 12.6004 89.8162 10.2004 92.8162 10.2004C93.6162 10.2004 95.3162 10.5004 96.2162 11.8004V10.5004H99.7162V22.4004L96.2162 22.3004ZM85.8162 22.3004H82.3162V20.8004C81.7162 21.9004 80.3162 22.5004 78.8162 22.5004C75.8162 22.5004 73.1162 20.1004 73.1162 16.3004C73.1162 12.5004 75.8162 10.1004 78.8162 10.1004C80.3162 10.1004 81.7162 10.7004 82.3162 11.8004V3.90039H85.8162V22.3004ZM82.3162 16.3004C82.3162 14.5004 81.0162 13.5004 79.6162 13.5004C78.1162 13.5004 76.9162 14.6004 76.9162 16.3004C76.9162 18.1004 78.1162 19.2004 79.6162 19.2004C81.0162 19.2004 82.3162 18.0004 82.3162 16.3004ZM64.6162 16.0004C64.6162 14.2004 65.5162 13.6004 66.8162 13.6004C68.0162 13.6004 68.8162 14.4004 68.8162 16.0004V22.3004H72.3162V15.2004C72.3162 11.8004 70.6162 10.2004 68.0162 10.2004C66.6162 10.2004 65.2162 11.0004 64.6162 12.2004V10.5004H61.1162V22.4004H64.6162V16.0004ZM54.0162 22.5004C50.7162 22.5004 47.9162 20.1004 47.9162 16.3004C47.9162 12.6004 50.7162 10.1004 54.0162 10.1004C57.3162 10.1004 60.1162 12.5004 60.1162 16.3004C60.1162 20.0004 57.3162 22.5004 54.0162 22.5004ZM54.0162 19.0004C55.5162 19.0004 56.7162 17.9004 56.7162 16.3004C56.7162 14.7004 55.5162 13.6004 54.0162 13.6004C53.6162 13.6004 53.3162 13.7004 53.0162 13.8004C52.7162 13.9004 52.4162 14.1004 52.1162 14.4004L51.5162 15.3004C51.4162 15.6004 51.3162 16.0004 51.3162 16.3004C51.3162 17.9004 52.5162 19.0004 54.0162 19.0004ZM41.6162 13.6004C42.6162 13.6004 43.5162 14.4004 43.5162 16.0004V22.3004H47.0162V15.6004C47.0162 12.0004 45.3162 10.2004 42.5162 10.2004C41.7162 10.2004 40.1162 10.5004 39.0162 12.3004C38.3162 10.9004 37.1162 10.2004 35.2162 10.2004C34.6162 10.2004 33.9162 10.4004 33.4162 10.7004C32.9162 11.0004 32.4162 11.5004 32.1162 12.1004V10.4004H28.6162V22.3004H32.1162V16.0004C32.1162 14.2004 33.1162 13.6004 34.1162 13.6004C35.1162 13.6004 36.0162 14.4004 36.0162 15.9004V22.3004H39.5162V16.0004C39.5162 14.2004 40.5163 13.6004 41.6162 13.6004Z" fill="#71717A"/>
</g>
<defs>
<clipPath id="clip0_256_7622">
<rect width="134" height="32" fill="white" transform="translate(0.416992)"/>
</clipPath>
</defs>
</svg>
