<svg width="90" height="32" viewBox="0 0 90 32" fill="none" xmlns="http://www.w3.org/2000/svg">
<g id="6515a6d5f30daec433d0ac45_logo-box-upwork.svg" clip-path="url(#clip0_256_7630)">
<path id="Vector" d="M58.1268 8.79961C54.2268 8.79961 51.1268 11.9996 51.1268 15.9996C51.1268 19.9996 54.3268 23.0996 58.2268 23.0996C62.1268 23.0996 65.2268 19.8996 65.2268 15.8996C65.2268 11.9996 62.0268 8.79961 58.1268 8.79961ZM58.2268 20.1996C57.1268 20.1996 56.0268 19.7996 55.3268 18.9996C54.5268 18.1996 54.1268 17.1996 54.1268 16.0996C54.1268 14.9996 54.5268 13.8996 55.3268 13.1996C56.1268 12.3996 57.1268 11.9996 58.2268 11.9996C59.3268 11.9996 60.4268 12.3996 61.1268 13.1996C61.9268 13.9996 62.3268 14.9996 62.3268 16.0996C62.3268 18.1996 60.4268 20.1996 58.2268 20.1996ZM73.8268 12.1996C71.8268 12.1996 70.2268 13.8996 70.2268 15.8996V22.6996H67.1268V9.19961H70.2268V11.2996C70.2268 11.2996 71.5268 9.19961 74.2268 9.19961H75.1268V12.1996H73.8268ZM43.0268 9.29961L45.3268 18.4996L47.7268 9.19961H50.8268L47.0268 22.6996H44.0268L41.6268 13.2996L39.3268 22.6996H36.3268L32.3268 9.19961H35.3268L38.0268 18.3996L40.2268 9.09961L43.0268 9.29961ZM84.1268 15.2996C86.2268 14.0996 87.7268 11.7996 87.7268 9.09961H84.6268C84.6268 11.3996 82.8268 13.2996 80.6268 13.2996H80.2268V2.59961H77.1268L77.2268 22.5996H80.3268V16.2996H80.7268C81.1268 16.2996 81.4268 16.4996 81.5268 16.6996L85.8268 22.5996H89.4268L84.1268 15.2996ZM25.1268 8.99961C21.8268 8.99961 19.2268 11.1996 18.3268 14.7996C16.7268 12.2996 15.5268 9.49961 14.7268 7.09961H11.2268V16.3996C11.2268 17.2996 10.9268 18.0996 10.2268 18.7996C9.62676 19.3996 8.72676 19.7996 7.82676 19.7996C6.92676 19.7996 6.12676 19.4996 5.42676 18.7996C4.82676 18.1996 4.42676 17.2996 4.42676 16.3996V7.09961H0.926758V16.3996C0.926758 20.2996 4.02676 23.2996 7.82676 23.2996C11.6268 23.2996 14.7268 20.1996 14.6268 16.2996V14.6996C15.3268 16.0996 16.2268 17.5996 17.2268 18.8996L15.0268 29.1996H18.6268L20.2268 21.6996C21.6268 22.5996 23.2268 23.0996 25.1268 23.0996C29.0268 23.0996 32.1268 19.8996 32.1268 15.7996C32.1268 13.8996 31.3268 12.0996 30.0268 10.7996C28.8268 9.69961 27.0268 8.99961 25.1268 8.99961ZM25.2268 19.5996C23.8268 19.5996 22.4268 18.9996 21.2268 17.9996L21.5268 16.5996V16.4996C21.8268 14.9996 22.5268 12.3996 25.2268 12.3996C26.1268 12.3996 27.0268 12.7996 27.7268 13.3996C28.4268 14.0996 28.7268 14.8996 28.8268 15.8996C28.7268 17.9996 27.1268 19.5996 25.2268 19.5996Z" fill="#71717A"/>
</g>
<defs>
<clipPath id="clip0_256_7630">
<rect width="89" height="32" fill="white" transform="translate(0.625977)"/>
</clipPath>
</defs>
</svg>
