<?xml version="1.0" encoding="UTF-8"?>
<!DOCTYPE svg PUBLIC "-//W3C//DTD SVG 1.1//EN" "http://www.w3.org/Graphics/SVG/1.1/DTD/svg11.dtd">
<!-- Creator: CorelDRAW -->
<svg xmlns="http://www.w3.org/2000/svg" xml:space="preserve" width="0.280063in" height="0.280071in" version="1.1" style="shape-rendering:geometricPrecision; text-rendering:geometricPrecision; image-rendering:optimizeQuality; fill-rule:evenodd; clip-rule:evenodd"
viewBox="0 0 3.94 3.94"
 xmlns:xlink="http://www.w3.org/1999/xlink"
 xmlns:xodm="http://www.corel.com/coreldraw/odm/2003">
 <defs>
  <style type="text/css">
   <![CDATA[
    .fil0 {fill:white}
   ]]>
  </style>
 </defs>
 <g id="Layer_x0020_1">
  <metadata id="CorelCorpID_0Corel-Layer"/>
  <path class="fil0" d="M1.97 0c1.09,0 1.97,0.88 1.97,1.97 0,1.09 -0.88,1.97 -1.97,1.97 -1.09,0 -1.97,-0.88 -1.97,-1.97 0,-1.09 0.88,-1.97 1.97,-1.97zm-0.72 2.49c0.05,0.04 0.1,0.07 0.16,0.1 0.06,0.02 0.12,0.04 0.18,0.05l0.09 0.02 -0.04 0.08c-0.01,0.01 -0.01,0.02 -0.01,0.03 -0,0.01 -0.01,0.02 -0.01,0.04l-0.01 0.04 -0.04 0.01c-0.02,0.01 -0.05,0.01 -0.08,0.02 -0.02,0 -0.05,0 -0.08,0 -0.04,-0 -0.08,-0.01 -0.12,-0.04 -0.04,-0.02 -0.08,-0.06 -0.11,-0.12 -0.01,-0.02 -0.02,-0.03 -0.03,-0.05 -0.01,-0.01 -0.02,-0.02 -0.02,-0.03 -0.02,-0.02 -0.04,-0.04 -0.07,-0.05 -0.03,-0.01 -0.06,-0.02 -0.09,-0.03 -0.01,-0 -0.03,0 -0.04,0 -0.01,0 -0.01,0 -0.02,0.01l-0.01 0 -0 0.01 -0 0.01c-0,0 0,0.01 0,0.01l0.01 0.01c0,0 0.01,0.01 0.01,0.01l0.02 0.01 0.03 0.02 0 -0c0.01,0.01 0.02,0.01 0.03,0.02l0.02 0.02c0.02,0.02 0.03,0.04 0.05,0.07 0.02,0.03 0.04,0.06 0.05,0.1 0.01,0.02 0.01,0.03 0.02,0.05 0.01,0.01 0.02,0.03 0.03,0.04 0.01,0.02 0.03,0.03 0.05,0.05 0.03,0.03 0.08,0.05 0.14,0.07 0.05,0.01 0.11,0.02 0.18,0.01l0.08 -0.01c0,0.11 0,0.21 -0,0.32l-0.08 -0 -0.02 -0c-0.29,-0.1 -0.54,-0.29 -0.72,-0.54 -0.17,-0.24 -0.27,-0.53 -0.27,-0.85 0,-0.19 0.04,-0.38 0.11,-0.56 0.07,-0.18 0.18,-0.34 0.32,-0.48 0.07,-0.07 0.14,-0.13 0.22,-0.18 0.08,-0.05 0.16,-0.1 0.25,-0.14 0.09,-0.04 0.18,-0.06 0.27,-0.08 0.09,-0.02 0.19,-0.03 0.29,-0.03 0.1,0 0.19,0.01 0.29,0.03 0.09,0.02 0.19,0.05 0.27,0.08 0.09,0.04 0.17,0.08 0.25,0.14 0.08,0.05 0.15,0.11 0.22,0.18 0.07,0.07 0.13,0.14 0.18,0.22 0.05,0.08 0.1,0.16 0.14,0.25 0.04,0.09 0.06,0.18 0.08,0.28 0.02,0.09 0.03,0.19 0.03,0.29 0,0.32 -0.1,0.61 -0.27,0.85 -0.18,0.25 -0.43,0.44 -0.72,0.54l-0.02 0 -0.08 0c-0,-0.16 -0,-0.32 -0,-0.48 0,-0.04 -0,-0.07 -0.01,-0.1 -0.01,-0.03 -0.02,-0.06 -0.03,-0.08l-0.04 -0.09 0.09 -0.02c0.06,-0.01 0.12,-0.03 0.18,-0.05 0.06,-0.02 0.11,-0.05 0.16,-0.09 0.06,-0.05 0.12,-0.12 0.15,-0.21 0.04,-0.09 0.06,-0.2 0.06,-0.34 0,-0.07 -0.01,-0.14 -0.03,-0.2 -0.02,-0.06 -0.05,-0.12 -0.09,-0.17l-0.02 -0.03 0.01 -0.04c0.01,-0.03 0.02,-0.08 0.02,-0.14 -0,-0.06 -0.01,-0.13 -0.04,-0.21 -0.01,-0 -0.02,-0 -0.02,-0 -0.01,-0 -0.02,-0 -0.03,0 -0.01,0 -0.02,0 -0.04,0.01 -0.03,0.01 -0.07,0.02 -0.12,0.04 -0.05,0.02 -0.1,0.05 -0.16,0.09l-0.03 0.02 -0.03 -0.01c-0.05,-0.01 -0.11,-0.02 -0.16,-0.03 -0.06,-0.01 -0.11,-0.01 -0.17,-0.01 -0.06,0 -0.12,0 -0.17,0.01 -0.06,0.01 -0.11,0.02 -0.16,0.03l-0.03 0.01 -0.03 -0.02c-0.06,-0.04 -0.12,-0.07 -0.16,-0.09 -0.05,-0.02 -0.08,-0.03 -0.12,-0.04 -0.02,-0 -0.03,-0.01 -0.04,-0.01 -0.01,-0 -0.02,-0 -0.03,-0 -0.01,0 -0.02,0 -0.02,0 -0.03,0.08 -0.04,0.15 -0.04,0.21 -0,0.06 0.01,0.11 0.02,0.14l0.01 0.04 -0.02 0.03c-0.04,0.05 -0.07,0.11 -0.09,0.17 -0.02,0.06 -0.03,0.13 -0.03,0.2 0,0.14 0.02,0.25 0.06,0.34 0.04,0.09 0.09,0.16 0.15,0.21zm-0.36 -0.05l0 -0.01c0.04,0 0.08,0 0.12,0 -0.02,-0.03 -0.04,-0.06 -0.05,-0.1 -0.04,-0.11 -0.07,-0.24 -0.07,-0.4 0,-0.09 0.01,-0.17 0.04,-0.25 0.02,-0.07 0.06,-0.13 0.1,-0.18 -0.01,-0.04 -0.01,-0.09 -0.01,-0.15 0,-0.08 0.02,-0.17 0.05,-0.26l0.02 -0.06 -0 -0 0 -0 0 -0 0.13 -0.04 0 0.01c0.01,-0 0.03,0 0.04,0 0.02,0 0.04,0 0.06,0.01 0.04,0.01 0.09,0.02 0.14,0.05 0.05,0.02 0.1,0.05 0.16,0.08 0.05,-0.01 0.1,-0.02 0.15,-0.03 0.06,-0.01 0.13,-0.01 0.19,-0.01 0.06,0 0.13,0 0.19,0.01 0.05,0.01 0.1,0.01 0.15,0.03 0.06,-0.04 0.11,-0.06 0.16,-0.08 0.06,-0.02 0.1,-0.04 0.14,-0.05 0.02,-0 0.04,-0.01 0.06,-0.01 0.02,-0 0.03,-0 0.04,-0l0 -0.01 0.13 0.04 0 0 0 0 -0 0 0.02 0.06c0.04,0.1 0.05,0.19 0.05,0.26 0,0.06 -0.01,0.11 -0.01,0.15 0.04,0.06 0.07,0.12 0.1,0.18 0.03,0.08 0.04,0.16 0.04,0.25 0,0.16 -0.02,0.29 -0.07,0.4 -0.05,0.11 -0.11,0.2 -0.2,0.27 -0.06,0.05 -0.13,0.09 -0.2,0.12 -0.04,0.02 -0.08,0.03 -0.13,0.04l0.01 0.03c0.01,0.04 0.01,0.08 0.01,0.13l0 0.3c0.23,-0.1 0.42,-0.25 0.56,-0.45 0.15,-0.22 0.25,-0.48 0.25,-0.77 0,-0.09 -0.01,-0.17 -0.03,-0.26 -0.02,-0.08 -0.04,-0.17 -0.07,-0.25 -0.03,-0.08 -0.07,-0.16 -0.12,-0.23 -0.05,-0.07 -0.1,-0.14 -0.16,-0.2 -0.06,-0.06 -0.13,-0.12 -0.2,-0.16 -0.07,-0.05 -0.15,-0.09 -0.23,-0.12 -0.08,-0.03 -0.16,-0.06 -0.25,-0.07 -0.08,-0.02 -0.17,-0.03 -0.26,-0.03 -0.09,0 -0.17,0.01 -0.26,0.03 -0.08,0.02 -0.17,0.04 -0.25,0.07 -0.08,0.03 -0.16,0.07 -0.23,0.12 -0.07,0.05 -0.14,0.1 -0.2,0.16 -0.12,0.12 -0.22,0.27 -0.29,0.43 -0.07,0.16 -0.1,0.33 -0.1,0.5 0,0.19 0.04,0.37 0.11,0.53 0.01,-0.02 0.02,-0.04 0.03,-0.05 0.01,-0.01 0.03,-0.02 0.04,-0.03 0.02,-0.01 0.04,-0.02 0.05,-0.02l0 -0z"/>
 </g>
</svg>
