<svg width="80" height="32" viewBox="0 0 80 32" fill="none" xmlns="http://www.w3.org/2000/svg">
<g id="6515a6d5f30daec433d0ac46_logo-box-vice.svg">
<path id="Vector" fill-rule="evenodd" clip-rule="evenodd" d="M78.769 7.37187C78.854 7.70587 78.482 8.02587 78.289 8.27187C76.669 10.3119 74.873 12.7269 72.714 14.2779C72.87 15.0899 72.787 16.1679 72.505 16.7629C73.071 17.4869 73.671 18.1729 74.02 19.1109C73.56 21.5609 72.492 23.4609 70.785 24.7039C69.119 25.9149 66.867 26.3939 64.313 26.9829C59.374 28.1249 51.248 29.2509 47.584 26.2919C43.617 28.6259 35.6 28.9339 31.889 26.1529C29.251 29.5029 18.846 29.2079 20.394 22.5629C18.464 24.0289 15.611 26.0489 12.889 27.1899C9.73199 28.5119 3.75399 28.3629 4.35099 23.8759C4.42299 23.3409 4.64899 23.0389 4.90199 22.5629C3.97899 20.9469 3.39499 19.8259 2.83699 18.4199C2.30199 17.0729 1.48699 15.5399 1.39099 13.6569C1.19099 9.65287 4.30199 7.11387 7.38299 5.92187C8.95399 5.31387 10.231 4.43187 11.788 3.99087C14.114 3.32587 16.108 4.60887 16.262 6.75187C18.967 5.94687 22.26 5.05887 25.832 5.57887C28.675 3.36087 34.229 4.73087 37.879 5.78387C38.704 6.02387 39.815 6.63987 40.426 6.61387C40.944 6.59287 41.879 5.88787 42.421 5.64687C44.982 4.50687 48.331 3.29487 51.991 3.92087C52.684 4.03787 53.318 4.40587 54.056 4.47087C54.556 4.51787 55.169 4.36087 55.708 4.33487C64.263 3.91587 71.384 6.21887 78.769 7.37187ZM54.814 7.09787C53.94 7.20287 53.32 8.16187 52.748 8.47787C52.79 8.47387 52.829 8.46787 52.816 8.40787C52.921 7.93787 53.121 7.56187 53.161 7.02787C48.579 5.40987 44.121 7.77587 40.839 9.58287C38.215 11.0269 35.874 12.7239 34.229 14.4149C34.824 13.3999 35.454 12.3949 36.158 11.4469C36.871 10.4839 37.665 9.61187 38.293 8.75487C36.921 8.39487 35.545 8.01387 34.16 7.71787C32.193 7.29787 29.457 6.60287 27.828 7.51187C27.356 7.77387 26.97 8.42087 26.52 8.47787C26.146 8.52687 25.532 8.25387 25.073 8.20287C23.391 8.01487 21.843 8.17087 20.323 8.47787C18.9 8.76487 15.89 9.27187 15.503 10.6179C15.257 11.4819 15.808 12.3199 15.711 13.1749C15.617 14.0149 14.811 15.1279 14.403 15.7979C13.903 16.6199 13.393 17.3479 12.543 17.7309C12.028 15.1579 12.589 12.8709 13.026 10.6889C13.296 9.34387 13.839 7.96787 13.371 6.61387C12.058 6.43087 10.953 7.47387 9.65299 7.99387C7.21099 8.97387 4.49099 9.86687 4.14599 12.6899C3.95099 14.2799 4.54599 15.2899 4.97199 16.4199C5.81157 18.6768 6.94608 20.8126 8.34599 22.7719C7.98099 23.4439 7.12299 23.6189 7.03599 24.5649C7.42599 25.1169 8.23399 25.1899 9.03299 25.1869C11.343 25.1819 13.237 24.0169 14.953 23.0469C18.689 20.9389 21.199 17.6929 23.835 14.6239C24.297 14.0839 24.678 13.4339 25.281 13.1039C25.872 15.8319 24.721 17.2909 23.903 19.5249C23.587 20.3859 22.591 23.0809 23.077 24.3579C23.609 25.7619 28.141 25.8239 29.342 24.9129C29.947 24.4529 30.188 23.4159 30.513 22.7719C30.928 21.9419 31.287 21.2259 31.614 20.4929C31.632 23.5179 33.873 24.4059 36.294 25.0499C41.443 26.4149 46.634 23.9759 49.444 22.2899C49.092 24.5299 49.96 24.7549 51.716 25.1199C56.256 26.0599 60.827 24.9759 64.52 24.0829C67.906 23.2659 70.628 22.6879 71.13 19.3179C70.588 18.8479 69.234 18.9069 68.307 19.0429C65.577 19.4439 62.933 20.8279 59.289 20.5609C58.624 20.5129 57.188 20.2809 57.084 19.8709C56.924 19.2349 58.062 18.7889 59.015 18.6289C61.745 18.1659 65.695 18.6339 67.894 17.7989C68.949 17.3989 70.224 16.2459 70.095 14.9689C70.012 14.1059 68.889 13.6539 67.824 13.5889C64.811 13.3989 62.658 15.1639 59.497 14.5549C59.892 14.0539 59.963 13.2289 60.459 12.8289C62.771 12.7799 65.018 13.2399 67.206 13.1049C70.248 12.9139 71.963 11.6289 73.402 9.92787C73.556 9.74487 73.942 9.54787 73.815 9.23787C68.531 8.43187 61.329 6.29587 54.814 7.09787ZM44.349 12.4119C44.01 13.9619 43.301 15.7339 42.904 17.4519C45.092 17.4839 47.4 17.0359 49.65 16.8999C49.954 16.4929 50.104 15.9299 50.27 15.3809C50.721 16.0209 51.039 17.2209 50.614 18.1429C47.197 18.0949 44.741 20.9019 41.39 20.9039C39.889 20.9059 38.613 20.0409 39.324 18.3489C40.327 15.9649 42.816 14.2989 44.349 12.4119ZM52.335 9.85687C52.979 10.5929 54.388 10.5619 55.226 11.1019C54.095 11.3929 52.67 11.3919 51.646 11.7899C51.887 11.1569 52.104 10.4999 52.336 9.85787L52.335 9.85687Z" fill="#71717A"/>
</g>
</svg>
