<?xml version="1.0" encoding="UTF-8"?>
<!DOCTYPE svg PUBLIC "-//W3C//DTD SVG 1.1//EN" "http://www.w3.org/Graphics/SVG/1.1/DTD/svg11.dtd">
<!-- Creator: CorelDRAW -->
<svg xmlns="http://www.w3.org/2000/svg" xml:space="preserve" width="0.280063in" height="0.280071in" version="1.1" style="shape-rendering:geometricPrecision; text-rendering:geometricPrecision; image-rendering:optimizeQuality; fill-rule:evenodd; clip-rule:evenodd"
viewBox="0 0 4.28 4.28"
 xmlns:xlink="http://www.w3.org/1999/xlink"
 xmlns:xodm="http://www.corel.com/coreldraw/odm/2003">
 <defs>
  <style type="text/css">
   <![CDATA[
    .fil0 {fill:white}
   ]]>
  </style>
 </defs>
 <g id="Layer_x0020_1">
  <metadata id="CorelCorpID_0Corel-Layer"/>
  <path class="fil0" d="M2.14 0c1.18,0 2.14,0.96 2.14,2.14 0,1.18 -0.96,2.14 -2.14,2.14 -1.18,0 -2.14,-0.96 -2.14,-2.14 0,-1.18 0.96,-2.14 2.14,-2.14zm-0.14 2.53l-0.79 0.9 -0.44 0 1.02 -1.17 -1.08 -1.41 0.9 0 0.62 0.83 0.72 -0.83 0.44 0 -0.96 1.1 1.13 1.49 -0.88 0 -0.69 -0.9zm-0.86 0.74l0.83 -0.95 -0.01 -0.01c-0.28,0.32 -0.56,0.64 -0.84,0.96l0.02 0zm1.16 -1.42l-0.02 0.03 0.01 0.01c0.26,-0.29 0.51,-0.59 0.77,-0.88l-0.02 0 -0.74 0.85zm0.51 1.32l0.24 0 -1.57 -2.07 -0.26 0 1.59 2.07z"/>
 </g>
</svg>
