<?xml version="1.0" encoding="UTF-8"?>
<!DOCTYPE svg PUBLIC "-//W3C//DTD SVG 1.1//EN" "http://www.w3.org/Graphics/SVG/1.1/DTD/svg11.dtd">
<!-- Creator: CorelDRAW -->
<svg xmlns="http://www.w3.org/2000/svg" xml:space="preserve" width="0.280063in" height="0.280071in" version="1.1" style="shape-rendering:geometricPrecision; text-rendering:geometricPrecision; image-rendering:optimizeQuality; fill-rule:evenodd; clip-rule:evenodd"
viewBox="0 0 4.09 4.09"
 xmlns:xlink="http://www.w3.org/1999/xlink"
 xmlns:xodm="http://www.corel.com/coreldraw/odm/2003">
 <defs>
  <style type="text/css">
   <![CDATA[
    .fil0 {fill:white}
   ]]>
  </style>
 </defs>
 <g id="Layer_x0020_1">
  <metadata id="CorelCorpID_0Corel-Layer"/>
  <path class="fil0" d="M2.04 0c1.13,0 2.04,0.92 2.04,2.05 0,1.13 -0.92,2.05 -2.04,2.05 -1.13,0 -2.04,-0.92 -2.04,-2.05 0,-1.13 0.92,-2.05 2.04,-2.05zm-0.38 2.5l0 0.13 0.11 -0.07 0.79 -0.46 0.11 -0.07 -0.11 -0.07 -0.79 -0.46 -0.11 -0.07 0 0.13 0 0.91zm1.8 -0.9l0 0 0 0c0.01,0.12 0.01,0.22 0.01,0.31l0 0 0 0 0.01 0.13c-0,0.33 -0.02,0.57 -0.06,0.71 -0.03,0.11 -0.1,0.18 -0.21,0.21 -0.06,0.02 -0.18,0.03 -0.39,0.04l0 -0 -0 0c-0.2,0.01 -0.38,0.02 -0.54,0.02l-0 0 -0 0 -0.24 0.01c-0.32,0 -0.57,-0.01 -0.77,-0.02 -0.2,-0.01 -0.33,-0.03 -0.4,-0.05 -0.11,-0.03 -0.18,-0.1 -0.21,-0.21 -0.02,-0.06 -0.03,-0.15 -0.04,-0.27l0 0 -0 -0c-0.01,-0.12 -0.01,-0.22 -0.01,-0.31l0 -0 -0 -0 -0.01 -0.12c0,-0.33 0.02,-0.57 0.06,-0.71 0.03,-0.11 0.1,-0.18 0.21,-0.21 0.06,-0.02 0.18,-0.03 0.39,-0.04l0 0 0 -0c0.2,-0.01 0.38,-0.02 0.54,-0.02l0 0 0 -0 0.24 -0.01c0.32,0 0.57,0.01 0.77,0.02 0.2,0.01 0.33,0.03 0.4,0.05 0.11,0.03 0.18,0.1 0.21,0.21 0.02,0.06 0.03,0.15 0.04,0.27z"/>
 </g>
</svg>
