<svg width="20" height="21" viewBox="0 0 20 21" fill="none" xmlns="http://www.w3.org/2000/svg">
<g id="facebook">
<path id="Vector" d="M13.5394 10.8231L13.242 12.7398H11.8003V13.2398M13.5394 10.8231L8.20033 18.4789C4.46458 17.6545 1.66699 14.3137 1.66699 10.3231C1.66699 5.71481 5.41699 1.97314 10.0003 1.97314C14.5837 1.97314 18.3337 5.71481 18.3337 10.3231C18.3381 12.3112 17.6317 14.2353 16.3419 15.7482C15.1625 17.1316 13.5664 18.0878 11.8003 18.4785V17.9656M13.5394 10.8231H13.617V10.3231L13.1229 10.2465L13.111 10.3231H11.8003V9.82314M13.5394 10.8231L13.7087 7.45648H13.2087H12.6587C11.6253 7.45648 11.3003 8.09814 11.3003 8.75648V9.82314H11.8003M11.8003 13.2398H11.3003V18.0665C11.4685 18.0382 11.6352 18.0045 11.8003 17.9656M11.8003 13.2398V17.9656M11.8003 13.2398H13.242H13.6704L13.7361 12.8165L14.1111 10.3998L14.2006 9.82314H13.617H11.8003M11.8003 17.9656C13.4174 17.5838 14.8769 16.696 15.9614 15.4238C17.1738 14.0017 17.8379 12.193 17.8337 10.3243L17.8337 10.3231C17.8337 5.99063 14.3072 2.47314 10.0003 2.47314C5.69346 2.47314 2.16699 5.99063 2.16699 10.3231C2.16699 14.0366 4.74382 17.1514 8.20033 17.966V13.2398H6.58366H6.08366V12.7398V10.3231V9.82314H6.58366H8.20033V8.48148C8.20033 7.3363 8.54226 6.3866 9.20615 5.72272C9.86948 5.05938 10.7959 4.73981 11.8503 4.73981C12.3305 4.73981 12.8155 4.78146 13.1761 4.82213C13.3575 4.84258 13.5098 4.86305 13.6172 4.87849C13.6709 4.88622 13.7136 4.8927 13.7431 4.89732L13.7775 4.90276L13.7869 4.90429L13.7896 4.90473L13.7904 4.90487L13.7907 4.90492L13.7908 4.90493L13.7087 5.39814L13.7909 4.90495L14.2087 4.97458V5.39814V7.45648V7.95648H13.7087H12.6587C12.2507 7.95648 12.0638 8.0787 11.9698 8.18713C11.8642 8.30887 11.8003 8.50079 11.8003 8.75648V9.82314" fill="#71717A" stroke="#71717A"/>
</g>
</svg>
