<svg width="20" height="21" viewBox="0 0 20 21" fill="none" xmlns="http://www.w3.org/2000/svg">
<g id="instagram">
<path id="Vector" d="M6.50033 2.43994H13.5003C15.8909 2.43994 17.8337 4.38275 17.8337 6.77327V13.7733C17.8337 14.9225 17.3771 16.0247 16.5645 16.8374C15.7518 17.6501 14.6496 18.1066 13.5003 18.1066H6.50033C4.1098 18.1066 2.16699 16.1638 2.16699 13.7733V6.77327C2.16699 5.624 2.62354 4.5218 3.4362 3.70915C4.24885 2.89649 5.35105 2.43994 6.50033 2.43994ZM6.33366 3.10661C5.4054 3.10661 4.51516 3.47536 3.85879 4.13173C3.20241 4.78811 2.83366 5.67835 2.83366 6.60661V13.9399C2.83366 15.8744 4.39918 17.4399 6.33366 17.4399H13.667C14.5952 17.4399 15.4855 17.0712 16.1419 16.4148C16.7982 15.7584 17.167 14.8682 17.167 13.9399V6.60661C17.167 4.67213 15.6015 3.10661 13.667 3.10661H6.33366ZM14.3753 5.35661C14.519 5.35661 14.6568 5.41368 14.7583 5.51526C14.8599 5.61684 14.917 5.75461 14.917 5.89827C14.917 6.04193 14.8599 6.17971 14.7583 6.28129C14.6568 6.38287 14.519 6.43994 14.3753 6.43994C14.2317 6.43994 14.0939 6.38287 13.9923 6.28129C13.8907 6.17971 13.8337 6.04193 13.8337 5.89827C13.8337 5.75461 13.8907 5.61684 13.9923 5.51526C14.0939 5.41368 14.2317 5.35661 14.3753 5.35661ZM10.0003 6.60661C10.9728 6.60661 11.9054 6.99292 12.5931 7.68055C13.2807 8.36818 13.667 9.30081 13.667 10.2733C13.667 11.2457 13.2807 12.1784 12.5931 12.866C11.9054 13.5536 10.9728 13.9399 10.0003 13.9399C9.02786 13.9399 8.09523 13.5536 7.4076 12.866C6.71997 12.1784 6.33366 11.2457 6.33366 10.2733C6.33366 9.30081 6.71997 8.36818 7.4076 7.68055C8.09523 6.99292 9.02786 6.60661 10.0003 6.60661ZM10.0003 7.27327C9.20468 7.27327 8.44161 7.58934 7.879 8.15195C7.3164 8.71456 7.00033 9.47763 7.00033 10.2733C7.00033 11.0689 7.3164 11.832 7.879 12.3946C8.44161 12.9572 9.20468 13.2733 10.0003 13.2733C10.796 13.2733 11.559 12.9572 12.1216 12.3946C12.6843 11.832 13.0003 11.0689 13.0003 10.2733C13.0003 9.47763 12.6843 8.71456 12.1216 8.15195C11.559 7.58934 10.796 7.27327 10.0003 7.27327Z" fill="#71717A" stroke="#71717A"/>
</g>
</svg>
