<svg width="20" height="21" viewBox="0 0 20 21" fill="none" xmlns="http://www.w3.org/2000/svg">
<path id="Vector" d="M4.74088 14.1932C5.48735 14.8203 6.40031 15.1383 7.2988 15.3105C7.21664 15.4893 7.14881 15.6881 7.09929 15.9063C6.8564 15.9849 6.55044 16.0491 6.24072 16.0223C5.84813 15.9882 5.41342 15.8076 5.06395 15.197L5.06317 15.1956L5.05531 15.182C5.04896 15.1712 5.04039 15.1568 5.02961 15.1395C5.00807 15.105 4.97749 15.0581 4.93791 15.0029C4.85922 14.8932 4.74242 14.7468 4.58739 14.597C4.28093 14.301 3.79357 13.9627 3.13491 13.9166L3.12257 13.9157L3.1102 13.9155L3.1 14.4154C3.1102 13.9155 3.11005 13.9155 3.10989 13.9155L3.10955 13.9155L3.10881 13.9155L3.10704 13.9154L3.1024 13.9154L3.08887 13.9153C3.07807 13.9153 3.06366 13.9155 3.0464 13.9159C3.01233 13.9168 2.96494 13.919 2.91104 13.9245C2.82323 13.9333 2.64208 13.9568 2.48199 14.0452C2.39694 14.0922 2.26944 14.184 2.19566 14.3493C2.11447 14.5312 2.1368 14.7137 2.19655 14.8549C2.25089 14.9833 2.33849 15.0875 2.42268 15.1696C2.5106 15.2553 2.61998 15.341 2.74847 15.4286L2.78016 15.4502L2.8074 15.4632C2.80799 15.4635 2.80868 15.4639 2.80949 15.4644C2.81654 15.4684 2.8319 15.4776 2.85405 15.493C2.89827 15.5236 2.96992 15.5789 3.05695 15.6669C3.22829 15.8402 3.46588 16.147 3.66981 16.6562C3.67165 16.6616 3.67376 16.6677 3.67617 16.6745C3.6839 16.6962 3.69469 16.7249 3.709 16.7593C3.73755 16.8281 3.78044 16.9206 3.84137 17.0272C3.96287 17.2398 4.15933 17.5139 4.46183 17.765C4.99988 18.2118 5.8162 18.5395 7 18.413V18.4157V18.4198V18.424V18.4282V18.4324V18.4365V18.4407V18.4449V18.449V18.4532V18.4573V18.4614V18.4655V18.4697V18.4738V18.4779V18.482V18.4861V18.4902V18.4943V18.4983V18.5024V18.5065V18.5105V18.5146V18.5187V18.5227V18.5267V18.5308V18.5348V18.5388V18.5428V18.5468V18.5508V18.5548V18.5588V18.5628V18.5668V18.5707V18.5747V18.5787V18.5826V18.5866V18.5905V18.5944V18.5984V18.6023V18.6062V18.6101V18.614V18.6179V18.6218V18.6257V18.6296V18.6335V18.6373V18.6412V18.645V18.6489V18.6527V18.6566V18.6604V18.6642V18.668V18.6718V18.6756V18.6794V18.6832V18.687V18.6908V18.6946V18.6983V18.7021V18.7058V18.7096V18.7133V18.7171V18.7208V18.7245V18.7282V18.7319V18.7356V18.7393V18.743V18.7467V18.7504V18.754V18.7577V18.7614V18.765V18.7687V18.7723V18.7759V18.7795V18.7832V18.7868V18.7904V18.794V18.7976V18.8011V18.8047V18.8083V18.8119V18.8154V18.819V18.8225V18.826V18.8296V18.8331V18.8366V18.8401V18.8436V18.8471V18.8506V18.8541V18.8576V18.8611V18.8645V18.868V18.8714V18.8749V18.8783V18.8817V18.8852V18.8886V18.892V18.8954V18.8988V18.9022V18.9055V18.9089V18.9123V18.9156V18.919V18.9223V18.9257V18.929V18.9323V18.9357V18.939V18.9423V18.9456V18.9489V18.9522V18.9554V18.9587V18.962V18.9652V18.9685V18.9717V18.9749V18.9782V18.9814V18.9846V18.9878V18.991V18.9942V18.9974V19.0006V19.0037V19.0069V19.0101V19.0132V19.0163V19.0195V19.0226V19.0257V19.0288V19.0319V19.035V19.0381V19.0412V19.0443V19.0474V19.0504V19.0535V19.0565V19.0596V19.0626V19.0656V19.0687V19.0717V19.0747V19.0777V19.0807V19.0836V19.0866V19.0896V19.0925V19.0955V19.0984V19.1014V19.1043V19.1072V19.1101V19.113V19.1159V19.1188V19.1217V19.1246V19.1275V19.1303V19.1332V19.136V19.1389V19.1417V19.1445V19.1473V19.1501V19.1529V19.1557V19.1585V19.1613V19.1641V19.1668V19.1696V19.1723V19.1751V19.1778V19.1805V19.1833V19.186V19.1887V19.1914V19.1941V19.1967V19.1994V19.2021V19.2047V19.2074V19.21V19.2126V19.2153V19.2179V19.2205V19.2231V19.2257V19.2283V19.2308V19.2334V19.236V19.2385V19.2411V19.2436V19.2461V19.2487V19.2512V19.2537V19.2562V19.2587V19.2612V19.2636V19.2661V19.2686V19.271V19.2734V19.2759V19.2783V19.2807V19.2831V19.2855V19.2879V19.2903V19.2927V19.2951V19.2974V19.2998V19.3021V19.3045V19.3068V19.3091V19.3114V19.3137V19.316V19.3183V19.3206V19.3229V19.3251V19.3274V19.3296V19.3319V19.3341V19.3363V19.3385V19.3407V19.3429V19.3451V19.3473V19.3495V19.3517V19.3538V19.356V19.3581V19.3602V19.3624V19.3645V19.3666V19.3687V19.3708V19.3728V19.3749V19.377V19.379V19.3811V19.3831V19.3852V19.3872V19.3892V19.3912V19.3932V19.3952V19.3972V19.3991V19.4011V19.403V19.405V19.4069V19.4089V19.4108V19.4127V19.4146V19.4165V19.4184V19.4202V19.4221V19.424V19.4258V19.4277V19.4295V19.4313V19.4331V19.4349V19.4367V19.4385V19.4403V19.4421V19.4438V19.4456V19.4473V19.4491V19.4508V19.4525V19.4542V19.4559V19.4576V19.4593V19.461V19.4627V19.4643V19.466V19.4676V19.4692V19.4709V19.4725V19.4741V19.4757V19.4773V19.4789V19.4804V19.482V19.4835V19.4851V19.4866V19.4881V19.4896V19.4912V19.4927V19.4941V19.4956V19.4971V19.4986V19.5V19.5014V19.5029V19.5043V19.5057V19.5071V19.5085V19.5099V19.5113V19.5127V19.514V19.5154C7 19.5199 6.99983 19.5242 6.99955 19.5281C6.98811 19.5284 6.97317 19.5281 6.95434 19.5263C3.20444 18.2492 0.5 14.6969 0.5 10.5154C0.5 7.99582 1.50089 5.57946 3.28249 3.79787C4.16464 2.91571 5.21191 2.21595 6.36451 1.73853C7.5171 1.26111 8.75244 1.01538 10 1.01538C11.2476 1.01538 12.4829 1.26111 13.6355 1.73853C14.7881 2.21595 15.8354 2.91571 16.7175 3.79787C17.5997 4.68002 18.2994 5.7273 18.7769 6.87989C19.2543 8.03248 19.5 9.26782 19.5 10.5154C19.5 14.6983 16.8035 18.2423 13.0507 19.5278C13.0296 19.5304 13.0131 19.531 13.0007 19.5308C13.0003 19.5261 13 19.521 13 19.5154V19.5135V19.5116V19.5097V19.5077V19.5058V19.5038V19.5018V19.4998V19.4978V19.4958V19.4937V19.4916V19.4895V19.4874V19.4853V19.4832V19.481V19.4788V19.4766V19.4744V19.4722V19.47V19.4677V19.4654V19.4631V19.4608V19.4585V19.4561V19.4538V19.4514V19.449V19.4466V19.4442V19.4417V19.4393V19.4368V19.4343V19.4318V19.4292V19.4267V19.4241V19.4216V19.419V19.4164V19.4137V19.4111V19.4084V19.4058V19.4031V19.4004V19.3976V19.3949V19.3921V19.3894V19.3866V19.3838V19.3809V19.3781V19.3752V19.3724V19.3695V19.3666V19.3637V19.3607V19.3578V19.3548V19.3518V19.3488V19.3458V19.3428V19.3397V19.3367V19.3336V19.3305V19.3274V19.3243V19.3211V19.318V19.3148V19.3116V19.3084V19.3052V19.302V19.2987V19.2955V19.2922V19.2889V19.2856V19.2822V19.2789V19.2755V19.2722V19.2688V19.2654V19.262V19.2585V19.2551V19.2516V19.2481V19.2446V19.2411V19.2376V19.2341V19.2305V19.2269V19.2233V19.2197V19.2161V19.2125V19.2088V19.2052V19.2015V19.1978V19.1941V19.1904V19.1867V19.1829V19.1791V19.1754V19.1716V19.1678V19.1639V19.1601V19.1562V19.1524V19.1485V19.1446V19.1407V19.1368V19.1328V19.1289V19.1249V19.1209V19.1169V19.1129V19.1089V19.1048V19.1008V19.0967V19.0926V19.0885V19.0844V19.0803V19.0762V19.072V19.0678V19.0636V19.0594V19.0552V19.051V19.0468V19.0425V19.0382V19.034V19.0297V19.0254V19.021V19.0167V19.0123V19.008V19.0036V18.9992V18.9948V18.9904V18.986V18.9815V18.977V18.9726V18.9681V18.9636V18.9591V18.9545V18.95V18.9454V18.9409V18.9363V18.9317V18.9271V18.9224V18.9178V18.9132V18.9085V18.9038V18.8991V18.8944V18.8897V18.885V18.8802V18.8755V18.8707V18.8659V18.8611V18.8563V18.8515V18.8467V18.8418V18.8369V18.8321V18.8272V18.8223V18.8174V18.8124V18.8075V18.8026V18.7976V18.7926V18.7876V18.7826V18.7776V18.7726V18.7675V18.7625V18.7574V18.7523V18.7472V18.7421V18.737V18.7319V18.7267V18.7216V18.7164V18.7112V18.706V18.7008V18.6956V18.6904V18.6852V18.6799V18.6746V18.6694V18.6641V18.6588V18.6535V18.6481V18.6428V18.6374V18.6321V18.6267V18.6213V18.6159V18.6105V18.6051V18.5996V18.5942V18.5887V18.5833V18.5778V18.5723V18.5668V18.5612V18.5557V18.5502V18.5446V18.539V18.5335V18.5279V18.5223V18.5167V18.511V18.5054V18.4998V18.4941V18.4884V18.4827V18.477V18.4713V18.4656V18.4599V18.4542V18.4484V18.4426V18.4369V18.4311V18.4253V18.4195V18.4137V18.4078V18.402V18.3961V18.3903V18.3844V18.3785V18.3726V18.3667V18.3608V18.3549V18.3489V18.343V18.337V18.331V18.325V18.319V18.313V18.307V18.301V18.295V18.2889V18.2828V18.2768V18.2707V18.2646V18.2585V18.2524V18.2463V18.2401V18.234V18.2278V18.2216V18.2155V18.2093V18.2031V18.1969V18.1907V18.1844V18.1782V18.1719V18.1657V18.1594V18.1531V18.1468V18.1405V18.1342V18.1279V18.1216V18.1152V18.1089V18.1025V18.0961V18.0897V18.0833V18.0769V18.0705V18.0641V18.0577V18.0512V18.0448V18.0383V18.0318V18.0254V18.0189V18.0124V18.0059V17.9993V17.9928V17.9863V17.9797V17.9731V17.9666V17.96V17.9534V17.9468V17.9402V17.9336V17.927V17.9203V17.9137V17.907V17.9004V17.8937V17.887V17.8803V17.8736V17.8669V17.8602V17.8534V17.8467V17.8399V17.8332V17.8264V17.8196V17.8129V17.8061V17.7993V17.7924V17.7856V17.7788V17.7719V17.7651V17.7582V17.7514V17.7445V17.7376V17.7307V17.7238V17.7169V17.71V17.7031V17.6961V17.6892V17.6822V17.6753V17.6683V17.6613V17.6543V17.6473V17.6403V17.6333V17.6263V17.6192V17.6122V17.6051V17.5981V17.591V17.584V17.5769V17.5698V17.5627V17.5556V17.5485V17.5413V17.5342V17.5271V17.5199V17.5128V17.5056V17.4984V17.4912V17.484V17.4768V17.4696V17.4624V17.4552V17.448V17.4407V17.4335V17.4262V17.419V17.4117V17.4044V17.3971V17.3899V17.3826V17.3752V17.3679V17.3606V17.3533V17.3459V17.3386V17.3312V17.3239V17.3165V17.3091V17.3017V17.2944V17.287V17.2796V17.2721V17.2647V17.2573V17.2499V17.2424V17.235V17.2275V17.22V17.2126V17.2051V17.1976V17.1901V17.1826V17.1751V17.1676V17.1601V17.1525V17.145V17.1374V17.1299V17.1223V17.1148V17.1072V17.0996V17.092V17.0844V17.0768V17.0692V17.0616V17.054V17.0464V17.0387V17.0311V17.0235V17.0158V17.0082V17.0005V16.9928V16.9851V16.9774V16.9698V16.9621V16.9543V16.9466V16.9389V16.9312V16.9235V16.9157V16.908V16.9002V16.8925V16.8847V16.8769V16.8692V16.8614V16.8536V16.8458V16.838V16.8302V16.8224V16.8146V16.8067V16.7989V16.7911V16.7832V16.7754C13 16.1907 12.8836 15.6958 12.6954 15.2992C13.5929 15.1283 14.5048 14.8145 15.2511 14.1935C16.2553 13.3578 16.88 12.0358 16.88 10.0154C16.88 8.89245 16.5271 7.95655 15.9135 7.1944C16.0578 6.6783 16.2042 5.68241 15.713 4.47673L15.625 4.26074L15.403 4.18937L15.25 4.66538C15.403 4.18937 15.4025 4.18921 15.402 4.18906L15.4011 4.18874L15.399 4.1881L15.3947 4.18677L15.3851 4.18394C15.3782 4.18198 15.3705 4.17989 15.3619 4.17773C15.3447 4.17341 15.324 4.16881 15.2998 4.16439C15.2513 4.15556 15.189 4.14754 15.1126 4.14391C14.9596 4.13664 14.7525 4.14714 14.489 4.2022C13.9969 4.305 13.3118 4.5622 12.4111 5.14478C11.6373 4.95114 10.8129 4.85538 10 4.85538C9.18712 4.85538 8.36267 4.95114 7.5889 5.14478C6.68821 4.5622 6.00308 4.305 5.511 4.2022C5.24747 4.14714 5.04044 4.13664 4.88738 4.14391C4.81101 4.14754 4.74873 4.15556 4.70022 4.16439C4.676 4.16881 4.6553 4.17341 4.63808 4.17773C4.62948 4.17989 4.62176 4.18198 4.61491 4.18394L4.60529 4.18677L4.60098 4.1881L4.59895 4.18874L4.59796 4.18906C4.59748 4.18921 4.597 4.18937 4.75 4.66538L4.597 4.18937L4.37495 4.26074L4.28695 4.47673C3.79575 5.68241 3.9422 6.6783 4.08646 7.1944C3.47285 7.95655 3.12 8.89245 3.12 10.0154C3.12 12.0305 3.74187 13.3539 4.74088 14.1932Z" fill="#71717A" stroke="#71717A"/>
</svg>
