<svg width="24" height="25" viewBox="0 0 24 25" fill="none" xmlns="http://www.w3.org/2000/svg">
<g id="youtube">
<path id="Vector" d="M9.5 15.2732V16.1397L10.2502 15.7061L15.4402 12.7061L16.1891 12.2732L15.4402 11.8403L10.2502 8.84031L9.5 8.40665V9.27319V15.2732ZM21.3414 9.38059L21.3414 9.38059L21.3419 9.38678C21.4108 10.1744 21.44 10.8497 21.44 11.4332V11.451L21.4413 11.4688L21.5 12.291C21.4991 14.4573 21.3393 16.0082 21.0778 16.9709C20.8746 17.7008 20.4269 18.1483 19.6967 18.3513C19.2889 18.4641 18.4834 18.5534 17.1573 18.6137L17.1573 18.6137L17.1531 18.6139C15.8619 18.6834 14.6808 18.7132 13.59 18.7132H13.5806L13.5711 18.7135L11.9906 18.7732C9.90514 18.7731 8.21866 18.7332 6.92869 18.659C5.62545 18.5841 4.76254 18.4759 4.30255 18.3511C3.57234 18.1479 3.12479 17.7001 2.92181 16.9696C2.8047 16.546 2.7177 15.9538 2.6586 15.1658L2.65864 15.1658L2.6581 15.1596C2.58918 14.372 2.56 13.6967 2.56 13.1132V13.0954L2.55873 13.0776L2.5 12.2554C2.50087 10.0893 2.66065 8.53845 2.92212 7.57571C3.12533 6.84554 3.57312 6.398 4.30357 6.19502C4.7115 6.08225 5.51693 5.99294 6.8427 5.93268L6.8427 5.93269L6.84688 5.93247C8.13813 5.86294 9.31916 5.83319 10.41 5.83319H10.4194L10.4289 5.83284L12.0094 5.77319C14.0949 5.77331 15.7813 5.81323 17.0713 5.88737C18.3746 5.96227 19.2376 6.07053 19.6975 6.19533C20.4277 6.39855 20.8752 6.84632 21.0782 7.57672C21.1953 8.00027 21.2823 8.59253 21.3414 9.38059Z" fill="#71717A" stroke="#71717A"/>
</g>
</svg>
