<svg width="24" height="25" viewBox="0 0 24 25" fill="none" xmlns="http://www.w3.org/2000/svg">
<path d="M11.02 19.6899H7.5C6.88 19.6899 6.33 19.6699 5.84 19.5999C3.21 19.3099 2.5 18.0699 2.5 14.6899V9.68994C2.5 6.30994 3.21 5.06994 5.84 4.77994C6.33 4.70994 6.88 4.68994 7.5 4.68994H10.96" stroke="#1B1B1B" stroke-width="1.5" stroke-linecap="round" stroke-linejoin="round"/>
<path d="M15.02 4.68994H16.5C17.12 4.68994 17.67 4.70994 18.16 4.77994C20.79 5.06994 21.5 6.30994 21.5 9.68994V14.6899C21.5 18.0699 20.79 19.3099 18.16 19.5999C17.67 19.6699 17.12 19.6899 16.5 19.6899H15.02" stroke="#1B1B1B" stroke-width="1.5" stroke-linecap="round" stroke-linejoin="round"/>
<path d="M15 2.18994V22.1899" stroke="#1B1B1B" stroke-width="1.5" stroke-linecap="round" stroke-linejoin="round"/>
<path d="M8 8.68994V15.6899" stroke="#1B1B1B" stroke-width="1.5" stroke-linecap="round" stroke-linejoin="round"/>
</svg>
