<svg width="117" height="32" viewBox="0 0 117 32" fill="none" xmlns="http://www.w3.org/2000/svg">
<g id="6515a6d5f30daec433d0ac3c_logo-box-dropbox.svg" clip-path="url(#clip0_256_7626)">
<path id="Vector" d="M13.5191 8.89961L6.81914 13.1996L13.5191 17.4996L6.81914 21.7996L0.119141 17.4996L6.81914 13.1996L0.119141 8.89961L6.81914 4.59961L13.5191 8.89961ZM6.71914 23.0996L13.4191 18.7996L20.1191 23.0996L13.4191 27.3996L6.71914 23.0996ZM13.5191 17.3996L20.2191 13.0996L13.5191 8.89961L20.2191 4.59961L26.9191 8.89961L20.2191 13.1996L26.9191 17.4996L20.2191 21.7996L13.5191 17.3996ZM32.1191 8.89961H37.5191C41.0191 8.89961 43.8191 10.8996 43.8191 15.4996V16.4996C43.8191 21.0996 41.1191 23.1996 37.6191 23.1996H32.1191V8.89961ZM35.1191 11.4996V20.4996H37.4191C39.4191 20.4996 40.7191 19.1996 40.7191 16.3996V15.6996C40.7191 12.8996 39.3191 11.5996 37.3191 11.5996H35.1191V11.4996ZM45.4191 11.5996H47.8191L48.2191 14.2996C48.7191 12.4996 49.8191 11.4996 52.0191 11.4996H52.8191V14.5996H51.6191C49.1191 14.5996 48.5191 15.4996 48.5191 17.8996V23.1996H45.5191L45.4191 11.5996ZM53.3191 17.5996V17.2996C53.3191 13.4996 55.8191 11.3996 59.1191 11.3996C62.5191 11.3996 64.9191 13.4996 64.9191 17.2996V17.5996C64.9191 21.3996 62.6191 23.3996 59.1191 23.3996C55.4191 23.3996 53.3191 21.3996 53.3191 17.5996ZM61.9191 17.5996V17.2996C61.9191 15.1996 60.8191 13.8996 59.1191 13.8996C57.4191 13.8996 56.3191 15.0996 56.3191 17.2996V17.5996C56.3191 19.6996 57.4191 20.7996 59.1191 20.7996C60.8191 20.7996 61.9191 19.5996 61.9191 17.5996ZM66.5191 11.5996H69.0191L69.3191 13.7996C69.9191 12.2996 71.2191 11.2996 73.1191 11.2996C76.0191 11.2996 77.9191 13.3996 77.9191 17.2996V17.5996C77.9191 21.3996 75.8191 23.3996 73.1191 23.3996C71.3191 23.3996 70.0191 22.5996 69.4191 21.2996V27.0996H66.5191V11.5996ZM74.9191 17.5996V17.2996C74.9191 14.9996 73.7191 13.8996 72.2191 13.8996C70.5191 13.8996 69.4191 15.1996 69.4191 17.2996V17.4996C69.4191 19.4996 70.5191 20.7996 72.1191 20.7996C73.8191 20.7996 74.9191 19.6996 74.9191 17.5996ZM82.4191 20.9996L82.1191 23.0996H79.5191V7.79961H82.4191V13.6996C83.0191 12.1996 84.3191 11.3996 86.1191 11.3996C88.8191 11.3996 90.9191 13.2996 90.9191 17.0996V17.4996C90.9191 21.2996 89.0191 23.4996 86.1191 23.4996C84.2191 23.3996 83.0191 22.4996 82.4191 20.9996ZM87.9191 17.3996V17.0996C87.9191 14.9996 86.8191 13.7996 85.2191 13.7996C83.6191 13.7996 82.4191 15.0996 82.4191 17.0996V17.3996C82.4191 19.4996 83.5191 20.7996 85.1191 20.7996C86.9191 20.7996 87.9191 19.6996 87.9191 17.3996ZM92.3191 17.5996V17.2996C92.3191 13.4996 94.8191 11.3996 98.1191 11.3996C101.519 11.3996 103.919 13.4996 103.919 17.2996V17.5996C103.919 21.3996 101.519 23.3996 98.1191 23.3996C94.4191 23.3996 92.3191 21.3996 92.3191 17.5996ZM100.819 17.5996V17.2996C100.819 15.1996 99.7191 13.8996 98.0191 13.8996C96.3191 13.8996 95.2191 15.0996 95.2191 17.2996V17.5996C95.2191 19.6996 96.3191 20.7996 98.0191 20.7996C99.8191 20.7996 100.819 19.5996 100.819 17.5996ZM107.819 17.0996L103.819 11.5996H107.319L109.619 14.9996L112.019 11.5996H115.419L111.319 17.0996L115.619 23.0996H112.219L109.619 19.2996L107.019 23.0996H103.519L107.819 17.0996Z" fill="#71717A"/>
</g>
<defs>
<clipPath id="clip0_256_7626">
<rect width="116" height="32" fill="white" transform="translate(0.0214844)"/>
</clipPath>
</defs>
</svg>
