<svg width="18" height="19" viewBox="0 0 18 19" fill="none" xmlns="http://www.w3.org/2000/svg">
<path d="M16.5 6.57994V3.17494C16.5 2.11744 16.02 1.68994 14.8275 1.68994H11.7975C10.605 1.68994 10.125 2.11744 10.125 3.17494V6.57244C10.125 7.63744 10.605 8.05744 11.7975 8.05744H14.8275C16.02 8.06494 16.5 7.63744 16.5 6.57994Z" stroke="#1B1B1B" stroke-width="1.125" stroke-linecap="round" stroke-linejoin="round"/>
<path d="M16.5 15.0174V11.9874C16.5 10.7949 16.02 10.3149 14.8275 10.3149H11.7975C10.605 10.3149 10.125 10.7949 10.125 11.9874V15.0174C10.125 16.2099 10.605 16.6899 11.7975 16.6899H14.8275C16.02 16.6899 16.5 16.2099 16.5 15.0174Z" stroke="#1B1B1B" stroke-width="1.125" stroke-linecap="round" stroke-linejoin="round"/>
<path d="M7.875 6.57994V3.17494C7.875 2.11744 7.395 1.68994 6.2025 1.68994H3.1725C1.98 1.68994 1.5 2.11744 1.5 3.17494V6.57244C1.5 7.63744 1.98 8.05744 3.1725 8.05744H6.2025C7.395 8.06494 7.875 7.63744 7.875 6.57994Z" stroke="#1B1B1B" stroke-width="1.125" stroke-linecap="round" stroke-linejoin="round"/>
<path d="M7.875 15.0174V11.9874C7.875 10.7949 7.395 10.3149 6.2025 10.3149H3.1725C1.98 10.3149 1.5 10.7949 1.5 11.9874V15.0174C1.5 16.2099 1.98 16.6899 3.1725 16.6899H6.2025C7.395 16.6899 7.875 16.2099 7.875 15.0174Z" stroke="#1B1B1B" stroke-width="1.125" stroke-linecap="round" stroke-linejoin="round"/>
</svg>
