<svg width="28" height="30" viewBox="0 0 28 30" fill="none" xmlns="http://www.w3.org/2000/svg">
<path d="M12 12.4399V15.7699" stroke="#666666" stroke-width="1.5" stroke-miterlimit="10" stroke-linecap="round"/>
<path d="M12.02 8C8.34002 8 5.36002 10.98 5.36002 14.66V16.76C5.36002 17.44 5.08002 18.46 4.73002 19.04L3.46002 21.16C2.68002 22.47 3.22002 23.93 4.66002 24.41C9.44002 26 14.61 26 19.39 24.41C20.74 23.96 21.32 22.38 20.59 21.16L19.32 19.04C18.97 18.46 18.69 17.43 18.69 16.76V14.66C18.68 11 15.68 8 12.02 8Z" stroke="#666666" stroke-width="1.5" stroke-miterlimit="10" stroke-linecap="round"/>
<path d="M15.33 24.8201C15.33 26.6501 13.83 28.1501 12 28.1501C11.09 28.1501 10.25 27.7701 9.65004 27.1701C9.05004 26.5701 8.67004 25.7301 8.67004 24.8201" stroke="#666666" stroke-width="1.5" stroke-miterlimit="10"/>
<rect x="12" width="16" height="16" rx="8" fill="#EE6A5F"/>
<path d="M21.32 11H20.49V9.31H17.32V8.62L20.18 4.33H21.32V8.58H22.26V9.31H21.32V11ZM20.49 8.58V5.1L18.15 8.58H20.49Z" fill="#FCFCFC"/>
</svg>
