<?xml version="1.0" encoding="UTF-8"?>
<!DOCTYPE svg PUBLIC "-//W3C//DTD SVG 1.1//EN" "http://www.w3.org/Graphics/SVG/1.1/DTD/svg11.dtd">
<!-- Creator: CorelDRAW -->
<svg xmlns="http://www.w3.org/2000/svg" xml:space="preserve" width="0.280063in" height="0.280071in" version="1.1" style="shape-rendering:geometricPrecision; text-rendering:geometricPrecision; image-rendering:optimizeQuality; fill-rule:evenodd; clip-rule:evenodd"
viewBox="0 0 4.27 4.27"
 xmlns:xlink="http://www.w3.org/1999/xlink"
 xmlns:xodm="http://www.corel.com/coreldraw/odm/2003">
 <defs>
  <style type="text/css">
   <![CDATA[
    .fil0 {fill:white}
   ]]>
  </style>
 </defs>
 <g id="Layer_x0020_1">
  <metadata id="CorelCorpID_0Corel-Layer"/>
  <path class="fil0" d="M2.14 0c1.18,0 2.14,0.96 2.14,2.14 0,1.18 -0.96,2.14 -2.14,2.14 -1.18,0 -2.14,-0.96 -2.14,-2.14 0,-1.18 0.96,-2.14 2.14,-2.14zm-0.56 0.81l1.11 0c0.21,0 0.4,0.09 0.54,0.23 0.14,0.14 0.23,0.33 0.23,0.54l0 1.11c0,0.1 -0.02,0.2 -0.06,0.29 -0.04,0.09 -0.09,0.18 -0.17,0.25 -0.07,0.07 -0.16,0.13 -0.25,0.17 -0.09,0.04 -0.19,0.06 -0.29,0.06l-1.11 0c-0.21,0 -0.4,-0.09 -0.54,-0.23 -0.14,-0.14 -0.23,-0.33 -0.23,-0.54l0 -1.11c0,-0.1 0.02,-0.2 0.06,-0.29 0.04,-0.09 0.09,-0.18 0.17,-0.25 0.07,-0.07 0.16,-0.13 0.25,-0.17 0.09,-0.04 0.19,-0.06 0.29,-0.06zm-0.03 0.26c-0.06,0 -0.13,0.01 -0.18,0.04 -0.06,0.02 -0.11,0.06 -0.15,0.1 -0.04,0.04 -0.08,0.1 -0.1,0.15 -0.02,0.06 -0.04,0.12 -0.04,0.18l0 1.17c0,0.13 0.05,0.25 0.14,0.34 0.09,0.09 0.21,0.14 0.34,0.14l1.17 0c0.06,0 0.13,-0.01 0.18,-0.04 0.06,-0.02 0.11,-0.06 0.15,-0.1 0.04,-0.04 0.08,-0.1 0.1,-0.15 0.02,-0.06 0.04,-0.12 0.04,-0.18l0 -1.17c0,-0.13 -0.05,-0.25 -0.14,-0.34 -0.09,-0.09 -0.21,-0.14 -0.34,-0.14l-1.17 0zm1.28 0.2c0.02,0 0.04,0 0.06,0.01 0.02,0.01 0.04,0.02 0.05,0.04 0.02,0.02 0.03,0.03 0.04,0.05 0.01,0.02 0.01,0.04 0.01,0.06 0,0.02 -0,0.04 -0.01,0.06 -0.01,0.02 -0.02,0.04 -0.04,0.05 -0.02,0.02 -0.03,0.03 -0.05,0.04 -0.02,0.01 -0.04,0.01 -0.06,0.01 -0.02,0 -0.04,-0 -0.06,-0.01 -0.02,-0.01 -0.04,-0.02 -0.05,-0.04 -0.02,-0.02 -0.03,-0.03 -0.04,-0.05 -0.01,-0.02 -0.01,-0.04 -0.01,-0.06 0,-0.02 0,-0.04 0.01,-0.06 0.01,-0.02 0.02,-0.04 0.04,-0.05 0.02,-0.02 0.03,-0.03 0.05,-0.04 0.02,-0.01 0.04,-0.01 0.06,-0.01zm0 0.16l-0.01 0 -0 0 0 0.01 0 0 0.01 0 0 -0c0,-0 0,-0.01 -0,-0.01zm-0.7 0.04c0.09,0 0.17,0.02 0.25,0.05 0.08,0.03 0.15,0.08 0.22,0.14 0.06,0.06 0.11,0.14 0.14,0.22 0.03,0.08 0.05,0.17 0.05,0.25 0,0.09 -0.02,0.17 -0.05,0.25 -0.03,0.08 -0.08,0.15 -0.14,0.22 -0.06,0.06 -0.14,0.11 -0.22,0.14 -0.08,0.03 -0.17,0.05 -0.25,0.05 -0.09,0 -0.17,-0.02 -0.25,-0.05 -0.08,-0.03 -0.15,-0.08 -0.22,-0.14 -0.06,-0.06 -0.11,-0.14 -0.14,-0.22 -0.03,-0.08 -0.05,-0.17 -0.05,-0.25 0,-0.09 0.02,-0.17 0.05,-0.25 0.03,-0.08 0.08,-0.15 0.14,-0.22 0.06,-0.06 0.14,-0.11 0.22,-0.14 0.08,-0.03 0.17,-0.05 0.25,-0.05zm0 0.26c-0.05,0 -0.1,0.01 -0.15,0.03 -0.05,0.02 -0.09,0.05 -0.13,0.09 -0.04,0.04 -0.07,0.08 -0.09,0.13 -0.02,0.05 -0.03,0.1 -0.03,0.15 0,0.05 0.01,0.1 0.03,0.15 0.02,0.05 0.05,0.09 0.09,0.13 0.04,0.04 0.08,0.07 0.13,0.09 0.05,0.02 0.1,0.03 0.15,0.03 0.05,0 0.1,-0.01 0.15,-0.03 0.05,-0.02 0.09,-0.05 0.13,-0.09 0.04,-0.04 0.07,-0.08 0.09,-0.13 0.02,-0.05 0.03,-0.1 0.03,-0.15 0,-0.05 -0.01,-0.1 -0.03,-0.15 -0.02,-0.05 -0.05,-0.09 -0.09,-0.13 -0.04,-0.04 -0.08,-0.07 -0.13,-0.09 -0.05,-0.02 -0.1,-0.03 -0.15,-0.03z"/>
 </g>
</svg>
