<svg width="18" height="18" viewBox="0 0 18 18" fill="none" xmlns="http://www.w3.org/2000/svg">
<path d="M6.375 10.873H11.625M6.375 7.12305H9" stroke="#1B1B1B" stroke-width="1.125" stroke-linecap="round" stroke-linejoin="round"/>
<path d="M10.628 15.6659C13.7652 15.4574 16.2642 12.923 16.4698 9.74121C16.5101 9.11855 16.5101 8.47374 16.4698 7.85109C16.2642 4.66933 13.7652 2.1349 10.628 1.92635C9.55764 1.85521 8.44018 1.85535 7.37205 1.92635C4.23479 2.1349 1.73581 4.66933 1.53018 7.85109C1.48994 8.47374 1.48994 9.11855 1.53018 9.74121C1.60507 10.9 2.11757 11.973 2.72093 12.879C3.07126 13.5133 2.84006 14.3049 2.47516 14.9964C2.21206 15.495 2.08051 15.7443 2.18613 15.9244C2.29176 16.1045 2.52769 16.1102 2.99957 16.1217C3.93275 16.1444 4.56201 15.8799 5.06151 15.5115C5.3448 15.3026 5.48645 15.1982 5.58408 15.1862C5.6817 15.1741 5.87383 15.2533 6.25801 15.4115C6.6033 15.5537 7.00422 15.6415 7.37205 15.6659C8.44018 15.7369 9.55764 15.7371 10.628 15.6659Z" stroke="#1B1B1B" stroke-width="1.125" stroke-linejoin="round"/>
</svg>
