<svg width="88" height="32" viewBox="0 0 88 32" fill="none" xmlns="http://www.w3.org/2000/svg">
<g id="6515a6d5f30daec433d0ac44_logo-box-philips.svg" clip-path="url(#clip0_256_7614)">
<path id="Vector" fill-rule="evenodd" clip-rule="evenodd" d="M81.5368 11.0847C83.0858 11.0847 84.7088 11.4307 85.8398 11.8747V8.8377C84.6838 8.4677 83.0858 8.0967 80.9958 8.0967C77.0358 8.0967 74.3558 9.5787 74.3558 12.6657C74.3558 17.9997 82.0038 16.9137 82.0038 19.3837C82.0038 20.3467 81.0938 20.8897 79.2988 20.8897C77.6758 20.8897 75.7818 20.8397 74.3068 20.1497V23.1617C75.7818 23.6807 77.9218 23.9027 79.5448 23.9027C83.6508 23.9027 86.6268 22.6677 86.6268 18.8647C86.6268 13.7767 78.9298 15.2587 78.9298 12.2447C78.9048 11.1097 80.1348 11.0847 81.5368 11.0847ZM65.3798 19.7797H64.0028V23.9037H59.2078V8.0967C59.3058 8.0967 63.0188 8.1707 64.6908 8.0967C69.6338 8.1707 72.9298 9.7507 72.9298 13.6037C72.9298 18.0987 69.7078 19.7787 65.3798 19.7787V19.7797ZM64.7158 10.8397H64.0278V17.0137H64.7158C67.1258 17.0137 68.1338 16.2727 68.1338 13.5807C68.1338 11.9257 67.0028 10.8637 64.7158 10.8387V10.8397ZM51.7068 8.0957H56.5018V23.9017H51.7068V8.0967V8.0957ZM40.0748 23.9027V8.0967H44.8708V20.4697H49.6658L48.9768 23.9027H40.0748ZM32.5498 8.0967H37.3458V23.9027H32.5498V8.0967ZM25.0248 17.7287H20.2298V23.9027H15.4348V8.0967H20.2298V14.2707H25.0248V8.0967H29.8208V23.9027H25.0248V17.7287ZM6.53277 19.7787H5.15577V23.9027H0.384766V8.0967C0.482766 8.0967 4.19577 8.1707 5.86877 8.0967C10.8118 8.1707 14.0818 9.7507 14.0818 13.6037C14.0818 18.0987 10.8618 19.7787 6.53277 19.7787ZM5.86877 10.8387H5.17977V17.0127H5.86877C8.27877 17.0127 9.28677 16.2717 9.28677 13.5797C9.28677 11.9247 8.15577 10.8637 5.86877 10.8387Z" fill="#71717A"/>
</g>
<defs>
<clipPath id="clip0_256_7614">
<rect width="87" height="32" fill="white" transform="translate(0.208984)"/>
</clipPath>
</defs>
</svg>
