<svg width="18" height="19" viewBox="0 0 18 19" fill="none" xmlns="http://www.w3.org/2000/svg">
<path d="M6.86992 8.34244C6.79492 8.33494 6.70492 8.33494 6.62242 8.34244C4.83742 8.28244 3.41992 6.81994 3.41992 5.01994C3.41992 3.18244 4.90492 1.68994 6.74992 1.68994C8.58742 1.68994 10.0799 3.18244 10.0799 5.01994C10.0724 6.81994 8.65492 8.28244 6.86992 8.34244Z" stroke="#1B1B1B" stroke-width="1.125" stroke-linecap="round" stroke-linejoin="round"/>
<path d="M12.3075 3.18994C13.7625 3.18994 14.9325 4.36744 14.9325 5.81494C14.9325 7.23244 13.8075 8.38744 12.405 8.43994C12.345 8.43244 12.2775 8.43244 12.21 8.43994" stroke="#1B1B1B" stroke-width="1.125" stroke-linecap="round" stroke-linejoin="round"/>
<path d="M3.12004 11.1099C1.30504 12.3249 1.30504 14.3049 3.12004 15.5124C5.18254 16.8924 8.56504 16.8924 10.6275 15.5124C12.4425 14.2974 12.4425 12.3174 10.6275 11.1099C8.57254 9.73744 5.19004 9.73744 3.12004 11.1099Z" stroke="#1B1B1B" stroke-width="1.125" stroke-linecap="round" stroke-linejoin="round"/>
<path d="M13.7551 15.1899C14.2951 15.0774 14.8051 14.8599 15.2251 14.5374C16.3951 13.6599 16.3951 12.2124 15.2251 11.3349C14.8126 11.0199 14.3101 10.8099 13.7776 10.6899" stroke="#1B1B1B" stroke-width="1.125" stroke-linecap="round" stroke-linejoin="round"/>
</svg>
