<svg width="57" height="32" viewBox="0 0 57 32" fill="none" xmlns="http://www.w3.org/2000/svg">
<g id="6515a6d5f30daec433d0ac41_logo-box-ted.svg">
<path id="Vector" d="M7.06584 11.105H1.58984V6H18.6068V11.105H13.1298V26H7.06584V11.105ZM19.5478 6H36.0938V11.105H25.6138V13.568H36.0938V18.372H25.6138V20.895H36.0938V26H19.5478V6ZM37.0938 6H47.0438C53.5808 6 55.8758 10.925 55.8758 15.97C55.8758 22.096 52.6958 26 45.8658 26H37.0938V6ZM43.1588 20.895H45.5128C49.2808 20.895 49.8128 17.772 49.8128 15.91C49.8128 14.649 49.3998 11.165 45.0428 11.165H43.0988L43.1588 20.895Z" fill="#71717A"/>
</g>
</svg>
