<svg width="20" height="21" viewBox="0 0 20 21" fill="none" xmlns="http://www.w3.org/2000/svg">
<g id="x-twitter (1) 1" clip-path="url(#clip0_376_12370)">
<path id="Vector" d="M8.70571 14.2409L3.88637 19.7498H2.45328L8.16929 13.2157L8.43862 12.9078L8.19021 12.5828L2.01154 4.49976H6.43874L10.2145 9.49274L10.585 9.98273L10.9896 9.52043L15.3831 4.49976H16.8121L11.5144 10.5533L11.2463 10.8596L11.4919 11.1842L17.9714 19.7498H13.6766L9.47906 14.2662L9.10784 13.7812L8.70571 14.2409ZM13.7903 18.9051L13.9404 19.1013H14.1875H15.7148H16.7198L16.1137 18.2998L6.25429 5.26069L6.10425 5.06226H5.85547H4.21484H3.20295L3.81769 5.86601L13.7903 18.9051Z" fill="#71717A" stroke="#71717A"/>
</g>
<defs>
<clipPath id="clip0_376_12370">
<rect width="20" height="20" fill="white" transform="translate(0 0.273193)"/>
</clipPath>
</defs>
</svg>
