<svg width="18" height="18" viewBox="0 0 18 18" fill="none" xmlns="http://www.w3.org/2000/svg">
<path d="M9 11.248C10.2426 11.248 11.25 10.2407 11.25 8.99805C11.25 7.75541 10.2426 6.74805 9 6.74805C7.75736 6.74805 6.75 7.75541 6.75 8.99805C6.75 10.2407 7.75736 11.248 9 11.248Z" stroke="#FCFCFC" stroke-width="1.125" stroke-miterlimit="10" stroke-linecap="round" stroke-linejoin="round"/>
<path d="M1.5 9.65714V8.33714C1.5 7.55714 2.1375 6.91215 2.925 6.91215C4.2825 6.91215 4.8375 5.95214 4.155 4.77464C3.765 4.09964 3.9975 3.22214 4.68 2.83214L5.9775 2.08964C6.57 1.73714 7.335 1.94714 7.6875 2.53964L7.77 2.68214C8.445 3.85964 9.555 3.85964 10.2375 2.68214L10.32 2.53964C10.6725 1.94714 11.4375 1.73714 12.03 2.08964L13.3275 2.83214C14.01 3.22214 14.2425 4.09964 13.8525 4.77464C13.17 5.95214 13.725 6.91215 15.0825 6.91215C15.8625 6.91215 16.5075 7.54964 16.5075 8.33714V9.65714C16.5075 10.4371 15.87 11.0821 15.0825 11.0821C13.725 11.0821 13.17 12.0421 13.8525 13.2196C14.2425 13.9021 14.01 14.7721 13.3275 15.1621L12.03 15.9046C11.4375 16.2571 10.6725 16.0471 10.32 15.4546L10.2375 15.3121C9.5625 14.1346 8.4525 14.1346 7.77 15.3121L7.6875 15.4546C7.335 16.0471 6.57 16.2571 5.9775 15.9046L4.68 15.1621C3.9975 14.7721 3.765 13.8946 4.155 13.2196C4.8375 12.0421 4.2825 11.0821 2.925 11.0821C2.1375 11.0821 1.5 10.4371 1.5 9.65714Z" stroke="#FCFCFC" stroke-width="1.125" stroke-miterlimit="10" stroke-linecap="round" stroke-linejoin="round"/>
</svg>
